<?xml version="1.0" standalone="no"?>
<!DOCTYPE svg PUBLIC "-//W3C//DTD SVG 20010904//EN"
 "http://www.w3.org/TR/2001/REC-SVG-20010904/DTD/svg10.dtd">
<svg version="1.0" xmlns="http://www.w3.org/2000/svg"
 width="766.000000pt" height="437.000000pt" viewBox="0 0 766.000000 437.000000"
 preserveAspectRatio="xMidYMid meet">

<g transform="translate(0.000000,437.000000) scale(0.100000,-0.100000)"
fill="#000000" stroke="none">
<path d="M3720 4314 c-587 -94 -1093 -419 -1422 -914 -62 -94 -178 -307 -224
-412 -16 -37 -32 -68 -35 -68 -3 0 -11 12 -18 28 -44 99 -217 404 -246 434
-43 45 -105 82 -160 97 -25 7 -184 11 -410 11 -400 1 -406 1 -502 -56 -56 -32
-116 -109 -140 -176 -17 -50 -18 -108 -18 -1053 l0 -1000 29 -62 c34 -73 113
-153 183 -186 48 -22 52 -22 790 -27 l741 -5 84 -110 c312 -413 794 -699 1338
-797 48 -8 153 -13 295 -12 200 0 232 3 348 27 242 52 541 171 728 292 191
123 412 328 548 507 l73 98 747 2 746 3 53 28 c71 37 129 99 166 177 l31 65 3
994 c3 1100 5 1050 -61 1147 -19 27 -53 64 -76 81 -72 56 -122 66 -354 71
-239 5 -314 -5 -400 -50 -71 -38 -118 -90 -176 -194 -100 -181 -116 -207 -125
-208 -5 -1 -48 66 -95 147 -99 170 -137 214 -223 259 -59 30 -71 32 -185 36
l-122 4 -86 103 c-194 232 -416 405 -686 534 -181 87 -349 143 -509 171 -165
29 -489 37 -630 14z m150 -549 l0 -275 -315 0 c-173 0 -315 2 -315 4 0 14 50
113 88 171 84 132 174 219 296 289 58 34 192 85 224 86 l22 0 0 -275z m359
250 c43 -14 107 -44 140 -66 97 -65 214 -182 271 -269 47 -75 90 -160 90 -181
0 -5 -129 -9 -310 -9 l-310 0 0 275 c0 318 -13 291 119 250z m-1095 -254 c-35
-55 -84 -139 -108 -187 l-43 -86 -114 1 c-62 1 -115 4 -117 6 -7 7 133 146
206 204 63 49 228 161 239 161 1 0 -27 -45 -63 -99z m1821 -15 c49 -34 135
-105 190 -158 l100 -97 -95 -1 c-52 0 -104 -3 -115 -6 -17 -4 -25 4 -45 48
-31 66 -121 210 -166 265 -19 23 -34 44 -34 48 0 8 51 -22 165 -99z m-3408
-701 c98 -191 414 -854 434 -908 15 -44 41 -63 57 -44 6 6 27 50 47 97 36 83
162 348 333 700 46 96 95 200 109 230 43 97 19 90 334 90 265 0 279 -1 289
-19 16 -31 14 -1615 -2 -1629 -12 -9 -291 -42 -359 -42 -45 0 -61 25 -57 87 1
29 0 53 -5 53 -4 0 -6 225 -3 500 2 275 1 500 -3 500 -4 0 -26 -39 -49 -86
-23 -47 -39 -83 -34 -80 4 2 19 28 32 56 19 42 26 48 31 33 11 -27 10 -71 -1
-91 -6 -9 -32 -66 -59 -127 -26 -60 -91 -204 -143 -320 -291 -642 -295 -649
-352 -684 -58 -36 -117 -45 -180 -27 -108 32 -105 27 -376 596 -54 113 -128
268 -165 344 -36 77 -89 189 -116 250 -28 61 -52 113 -55 115 -2 2 -3 -198 -2
-445 1 -247 4 -411 7 -364 l6 85 7 -55 c14 -107 18 -607 5 -624 -21 -27 -59
-32 -234 -26 -192 6 -198 7 -213 76 -13 56 -13 1819 0 1866 6 21 18 42 28 48
11 6 128 9 312 7 l295 -2 82 -160z m3113 154 c102 -23 198 -90 265 -184 99
-140 125 -226 125 -416 0 -115 -4 -143 -24 -201 -60 -170 -175 -291 -332 -350
-56 -21 -78 -22 -459 -28 l-399 -5 -14 -25 c-10 -19 -12 -62 -7 -190 4 -126 3
-170 -7 -183 -11 -14 -42 -19 -201 -28 -104 -6 -199 -8 -213 -5 l-25 7 3 327
3 327 28 57 c16 32 48 75 73 97 85 74 84 74 591 80 435 6 453 7 480 27 45 32
75 101 69 153 -6 48 -19 62 -82 91 -39 19 -67 20 -432 20 -371 0 -393 1 -446
21 -57 21 -197 114 -229 152 -42 50 -67 120 -67 188 0 36 3 69 7 72 11 12
1243 8 1293 -4z m1142 -6 c14 -17 98 -175 347 -655 51 -98 97 -178 102 -178 6
0 35 51 64 113 30 63 85 172 123 243 38 71 108 206 157 299 48 94 92 176 97
183 8 9 63 12 214 12 112 0 204 -4 204 -8 0 -4 -30 -64 -66 -132 -36 -69 -128
-244 -204 -390 -242 -465 -278 -532 -299 -554 -19 -20 -21 -24 -21 -47 0 -5
-4 -8 -9 -4 -5 3 -13 0 -17 -6 -4 -8 -3 -9 4 -5 20 12 15 -1 -57 -148 -73
-152 -103 -187 -169 -206 -53 -14 -78 -13 -121 10 -48 24 -86 70 -138 163 -22
40 -109 196 -193 347 -84 151 -152 283 -152 293 0 10 -4 15 -10 11 -6 -4 -6 2
2 15 6 13 16 19 23 14 7 -4 5 2 -3 12 -14 17 -14 18 7 7 21 -12 21 -11 -4 33
-13 25 -29 45 -34 45 -5 0 -9 -267 -9 -659 0 -557 -2 -660 -14 -670 -20 -16
-381 26 -402 46 -19 20 -21 343 -1 343 6 0 4 5 -5 11 -17 9 -18 34 -18 287 0
152 3 483 7 735 l6 457 287 0 c261 0 288 -2 302 -17z m1379 -1130 c0 -563 -2
-797 -10 -812 -19 -35 -40 -39 -203 -43 -154 -3 -157 -3 -182 21 l-26 24 0
423 0 422 43 78 c24 44 92 174 152 289 113 219 214 399 221 393 2 -2 4 -360 5
-795z m-5914 170 c-3 -10 -5 -2 -5 17 0 19 2 27 5 18 2 -10 2 -26 0 -35z m0
-215 c-3 -8 -6 -5 -6 6 -1 11 2 17 5 13 3 -3 4 -12 1 -19z m0 -85 c-3 -10 -5
-4 -5 12 0 17 2 24 5 18 2 -7 2 -21 0 -30z m2883 -553 c29 -16 36 -34 86 -222
124 -465 131 -510 82 -537 -25 -14 -29 -14 -55 5 -29 22 -47 62 -58 127 l-6
37 -89 0 -89 0 -11 -42 c-23 -90 -32 -110 -56 -120 -35 -16 -76 1 -88 35 -11
31 -10 37 76 342 91 325 97 344 120 365 24 22 59 26 88 10z m-439 -19 l24 -19
3 -346 c3 -336 2 -346 -18 -366 -26 -26 -62 -26 -86 1 -17 19 -20 42 -24 198
l-5 176 -64 -170 c-88 -236 -91 -242 -136 -231 -30 8 -50 45 -116 219 -27 72
-54 136 -59 141 -7 7 -10 -61 -10 -197 0 -194 -1 -208 -20 -227 -22 -22 -25
-23 -58 -14 -48 13 -50 33 -48 412 3 333 4 354 22 372 34 33 60 34 93 3 24
-21 52 -78 114 -231 45 -112 86 -205 91 -205 9 -2 25 37 120 289 72 189 86
214 125 214 16 0 39 -9 52 -19z m848 2 c12 -10 43 -70 71 -133 27 -63 53 -116
58 -118 4 -1 28 39 52 89 25 49 53 99 63 110 36 39 117 10 117 -42 0 -11 -35
-84 -77 -162 l-77 -140 19 -51 c9 -28 44 -108 76 -178 33 -70 59 -137 59 -149
0 -34 -28 -59 -67 -59 -40 0 -49 13 -119 170 -27 60 -52 106 -56 102 -4 -4
-28 -45 -53 -92 -58 -106 -71 -120 -106 -120 -32 0 -59 32 -59 70 0 14 30 79
66 145 36 66 69 129 74 141 7 16 -9 58 -71 184 -43 89 -79 171 -79 182 0 25
43 68 68 68 11 0 29 -8 41 -17z m-1671 -375 c18 -18 17 -248 -2 -248 -21 0
-67 40 -60 52 4 6 2 8 -3 5 -12 -8 -88 80 -88 103 -1 8 -6 14 -13 13 -11 -3
-62 63 -62 79 0 13 215 9 228 -4z m2442 -1 c0 -15 -91 -129 -159 -199 -44 -47
-90 -64 -92 -35 -3 31 3 233 8 240 2 4 58 7 124 7 91 0 119 -3 119 -13z m-950
-517 c34 -23 -161 -157 -235 -163 l-30 -2 0 80 0 80 120 5 c66 4 122 7 125 8
3 1 12 -3 20 -8z m-520 -87 c0 -49 -4 -83 -8 -78 -4 6 -18 11 -32 13 -26 3
-130 49 -130 58 0 3 6 2 13 -2 6 -4 8 -3 4 1 -4 5 -14 10 -22 11 -19 3 -95 63
-95 75 0 5 60 9 135 9 l135 0 0 -87z"/>
<path d="M2948 1693 c7 -3 16 -2 19 1 4 3 -2 6 -13 5 -11 0 -14 -3 -6 -6z"/>
<path d="M1252 1540 c0 -14 2 -19 5 -12 2 6 2 18 0 25 -3 6 -5 1 -5 -13z"/>
<path d="M5760 2461 c0 -6 4 -13 10 -16 6 -3 7 1 4 9 -7 18 -14 21 -14 7z"/>
<path d="M5338 1703 c7 -3 16 -2 19 1 4 3 -2 6 -13 5 -11 0 -14 -3 -6 -6z"/>
<path d="M5388 1693 c7 -3 16 -2 19 1 4 3 -2 6 -13 5 -11 0 -14 -3 -6 -6z"/>
<path d="M5478 1673 c6 -2 18 -2 25 0 6 3 1 5 -13 5 -14 0 -19 -2 -12 -5z"/>
<path d="M5598 1653 c6 -2 18 -2 25 0 6 3 1 5 -13 5 -14 0 -19 -2 -12 -5z"/>
<path d="M4084 1028 l-20 -93 44 -3 c24 -2 46 -2 47 0 4 3 -42 178 -48 184 -2
2 -13 -38 -23 -88z"/>
<path d="M2683 983 c9 -2 17 -10 17 -16 0 -9 2 -9 8 -1 4 7 16 14 27 17 11 2
0 5 -25 5 -25 0 -37 -2 -27 -5z"/>
<path d="M2768 863 c7 -3 16 -2 19 1 4 3 -2 6 -13 5 -11 0 -14 -3 -6 -6z"/>
<path d="M2790 836 c0 -2 8 -10 18 -17 15 -13 16 -12 3 4 -13 16 -21 21 -21
13z"/>
<path d="M3728 453 c7 -3 16 -2 19 1 4 3 -2 6 -13 5 -11 0 -14 -3 -6 -6z"/>
<path d="M3808 453 c7 -3 16 -2 19 1 4 3 -2 6 -13 5 -11 0 -14 -3 -6 -6z"/>
</g>
</svg>
